<svg width="20" height="20" viewBox="0 0 20 20" fill="none" xmlns="http://www.w3.org/2000/svg">
<path d="M4 12C6.20914 12 8 13.7909 8 16C8 18.2091 6.20914 20 4 20C1.79086 20 0 18.2091 0 16C0 13.7909 1.79086 12 4 12ZM18 12C19.1046 12 20 12.8954 20 14V18C20 19.1046 19.1046 20 18 20H14C12.8954 20 12 19.1046 12 18V14C12 12.8954 12.8954 12 14 12H18ZM6 0C7.10457 0 8 0.895431 8 2V6C8 7.10457 7.10457 8 6 8H2C0.895431 8 0 7.10457 0 6V2C0 0.895431 0.895431 0 2 0H6ZM16 0C18.2091 0 20 1.79086 20 4C20 6.20914 18.2091 8 16 8C13.7909 8 12 6.20914 12 4C12 1.79086 13.7909 0 16 0Z" fill="#006EC4"/>
</svg>
